<svg width="35" height="43" viewBox="0 0 35 43" fill="none" xmlns="http://www.w3.org/2000/svg">
<path d="M17.5 42.2864C12.8607 42.2802 8.41318 40.4343 5.13269 37.1537C1.85218 33.8732 0.00639655 29.4257 0 24.7864C0 24.3063 0.190737 23.8458 0.530237 23.5064C0.869737 23.1668 1.33022 22.9761 1.81034 22.9761C2.29047 22.9761 2.75095 23.1668 3.09045 23.5064C3.42995 23.8458 3.62069 24.3063 3.62069 24.7864C3.62069 27.5314 4.43469 30.2148 5.95978 32.4973C7.48486 34.7798 9.65249 36.5587 12.1886 37.6092C14.7246 38.6597 17.5154 38.9346 20.2078 38.399C22.9001 37.8636 25.3731 36.5416 27.3142 34.6007C29.2552 32.6595 30.5772 30.1866 31.1126 27.4942C31.6482 24.8019 31.3733 22.0111 30.3228 19.4751C29.2723 16.939 27.4933 14.7713 25.2109 13.2462C22.9284 11.7211 20.245 10.9071 17.5 10.9071H11.4655C10.9854 10.9071 10.5249 10.7164 10.1854 10.3769C9.84591 10.0374 9.65517 9.57691 9.65517 9.09678C9.65517 8.61666 9.84591 8.15618 10.1854 7.81668C10.5249 7.47718 10.9854 7.28644 11.4655 7.28644H17.5C22.1412 7.28644 26.5925 9.13019 29.8743 12.4121C33.1563 15.6939 35 20.1452 35 24.7864C35 29.4277 33.1563 33.879 29.8743 37.1607C26.5925 40.4428 22.1412 42.2864 17.5 42.2864Z" fill="white"/>
<path d="M17.4999 18.1485C17.2622 18.1497 17.0263 18.1034 16.8067 18.0121C16.587 17.9209 16.3877 17.7867 16.2206 17.6175L8.97924 10.3762C8.64022 10.0368 8.4498 9.57662 8.4498 9.09688C8.4498 8.61714 8.64022 8.15702 8.97924 7.81757L16.2206 0.576189C16.3864 0.398317 16.5863 0.255662 16.8084 0.156721C17.0304 0.0577793 17.2701 0.0045792 17.5132 0.000282648C17.7563 -0.0040139 17.9977 0.0407133 18.2231 0.131762C18.4485 0.22281 18.6532 0.35832 18.8251 0.530231C18.9972 0.702141 19.1326 0.906927 19.2236 1.13233C19.3146 1.35775 19.3595 1.5992 19.3552 1.84227C19.3508 2.08537 19.2977 2.32508 19.1988 2.54715C19.0998 2.76922 18.9571 2.96908 18.7792 3.13481L12.8172 9.09688L18.7792 15.0589C19.1181 15.3984 19.3086 15.8585 19.3086 16.3382C19.3086 16.818 19.1181 17.2781 18.7792 17.6175C18.6122 17.7867 18.4128 17.9209 18.1932 18.0121C17.9735 18.1034 17.7377 18.1497 17.4999 18.1485Z" fill="white"/>
</svg>
